<svg width="20" height="21" viewBox="0 0 20 21" fill="none" xmlns="http://www.w3.org/2000/svg">
<path d="M4.37502 9.66665C4.02984 9.66665 3.75002 9.94647 3.75002 10.2916C3.75002 10.6081 3.98515 10.8696 4.29021 10.9109L4.37502 10.9166H16.0417C16.3869 10.9166 16.6667 10.6368 16.6667 10.2916C16.6667 9.97523 16.4316 9.71374 16.1265 9.67235L16.0417 9.66665H4.37502Z" fill="#EF7925"/>
<path d="M16.4836 9.8497C16.2617 9.62782 15.9145 9.60764 15.6698 9.78919L15.5997 9.8497L12.2664 13.183C12.0223 13.4271 12.0223 13.8228 12.2664 14.0669C12.4883 14.2888 12.8355 14.309 13.0802 14.1274L13.1503 14.0669L16.4836 10.7336C16.7277 10.4895 16.7277 10.0938 16.4836 9.8497Z" fill="#EF7925"/>
<path d="M13.1503 6.51637C12.9062 6.27229 12.5105 6.27229 12.2664 6.51637C12.0445 6.73826 12.0244 7.08548 12.2059 7.33016L12.2664 7.40025L15.5997 10.7336C15.8438 10.9777 16.2396 10.9777 16.4836 10.7336C16.7055 10.5117 16.7257 10.1645 16.5441 9.9198L16.4836 9.8497L13.1503 6.51637Z" fill="#EF7925"/>
</svg>
